<?xml version="1.0" encoding="UTF-8" standalone="no"?>
<svg
   viewBox="0 0 200 200"
   width="200"
   height="200"
   version="1.1"
   id="svg4"
   sodipodi:docname="logo.svg"
   inkscape:version="1.4 (e7c3feb100, 2024-10-09)"
   inkscape:export-filename="logo.png"
   inkscape:export-xdpi="96"
   inkscape:export-ydpi="96"
   xmlns:inkscape="http://www.inkscape.org/namespaces/inkscape"
   xmlns:sodipodi="http://sodipodi.sourceforge.net/DTD/sodipodi-0.dtd"
   xmlns="http://www.w3.org/2000/svg"
   xmlns:svg="http://www.w3.org/2000/svg">
  <defs
     id="defs4" />
  <sodipodi:namedview
     id="namedview4"
     pagecolor="#ffffff"
     bordercolor="#666666"
     borderopacity="1.0"
     inkscape:showpageshadow="2"
     inkscape:pageopacity="0.0"
     inkscape:pagecheckerboard="0"
     inkscape:deskcolor="#d1d1d1"
     inkscape:zoom="2.1866408"
     inkscape:cx="129.42226"
     inkscape:cy="62.881841"
     inkscape:window-width="1920"
     inkscape:window-height="1131"
     inkscape:window-x="0"
     inkscape:window-y="32"
     inkscape:window-maximized="1"
     inkscape:current-layer="svg4" />
  <!-- Boa constrictor ayant avalé un éléphant -->
  <!-- Œil (tête à droite) -->
  <!-- half-orm -->
  <text
     x="146.63741"
     y="113.45139"
     text-anchor="middle"
     font-family="'Courier New', Courier, monospace"
     font-size="34.1593px"
     fill="#336791"
     id="text4"
     transform="scale(0.67357867,1.4846076)"
     style="font-size:50.8862px;stroke-width:1.64606"><tspan
       font-weight="300"
       opacity="0.55"
       id="tspan3"
       style="font-style:normal;font-variant:normal;font-weight:800;font-stretch:normal;font-size:50.8862px;font-family:Cantarell;-inkscape-font-specification:'Cantarell Ultra-Bold';stroke-width:1.64606">ORM</tspan></text>
  <text
     x="181.93187"
     y="46.134552"
     text-anchor="middle"
     font-family="'Courier New', Courier, monospace"
     font-size="45.586px"
     fill="#336791"
     id="text4-0"
     transform="scale(0.53508614,1.868858)"
     style="stroke-width:2.0721"><tspan
       font-weight="300"
       opacity="0.55"
       id="tspan3-2"
       style="font-style:normal;font-variant:normal;font-weight:bold;font-stretch:normal;font-family:Cantarell;-inkscape-font-specification:'Cantarell Bold';stroke-width:2.0721">half</tspan></text>
  <path
     d="m 14.829328,114.61129 c 0.21122,-2.30292 23.36405,-0.10585 38.345695,-8.4929 9.10438,-5.09683 6.61134,-18.707093 13.79538,-26.849206 13.0284,-7.521151 20.32899,2.734123 23.58609,2.734123 3.2571,0 15.079647,-2.133795 28.108057,5.387357 8.52064,5.855794 5.92398,19.196526 15.00799,23.339026 15.2232,6.94209 52.34448,1.29503 52.50774,5.62191 -3.42259,6.31186 -32.26079,3.72368 -56.42057,2.20689 -16.28551,-1.25353 -26.05681,-1.88029 -32.571007,-1.88029 -6.5142,0 -16.28551,0.62676 -32.57101,1.88029 -15.063455,1.24228 -34.538255,1.81503 -44.270355,0.26455 -4.99818,-0.7963 -5.65102,-2.79326 -5.51801,-4.21175 z"
     fill="#7a6035"
     stroke="#4a3820"
     stroke-width="1.27794"
     id="path1"
     sodipodi:nodetypes="cscscsccscsc"
     style="fill:#b3b3b3" />
</svg>
